{"asset":{"version":"2.0","generator":"babylon.js glTF exporter for 3dsmax 2018 v20211102.1"},"scene":0,"scenes":[{"nodes":[0,1,2,3,4,5,6,7,8,9,10,11,12,13,14]}],"nodes":[{"mesh":0,"translation":[-13.5627851,18.1270657,3.397504],"name":"side"},{"mesh":1,"translation":[-9.627646,4.727412,6.725742],"name":"ground"},{"mesh":2,"translation":[-106.886841,27.1389465,-209.793488],"name":"pipe"},{"mesh":3,"translation":[67.1329,26.8818283,249.533066],"name":"pipe (1)"},{"mesh":4,"translation":[129.536224,8.117832,-328.4067],"name":"platform"},{"mesh":5,"translation":[-144.677277,4.671297,262.493256],"name":"rail"},{"mesh":6,"translation":[49.1387978,21.1972675,-287.383148],"name":"rail (1)"},{"mesh":7,"translation":[162.645523,21.78644,-267.539673],"name":"rail (2)"},{"mesh":8,"translation":[-205.8863,3.659909,-234.681931],"rotation":[0.0,8.742278E-08,0.0,1.0],"name":"rail (3)"},{"mesh":9,"translation":[-15.4983635,-0.0530519076,3.33419824],"rotation":[0.0,8.742278E-08,0.0,1.0],"name":"ramp"},{"mesh":10,"translation":[75.5383759,-2.38524723,10.6359825],"rotation":[0.0,8.742278E-08,0.0,1.0],"name":"rail (4)"},{"mesh":11,"translation":[132.888947,4.38346863,309.604675],"rotation":[0.0,8.742278E-08,0.0,1.0],"name":"rail (5)"},{"mesh":12,"translation":[-15.87185,1.39165092,-61.13836],"rotation":[-0.7027369,-0.7027369,0.07849145,-0.0784913],"scale":[0.552894,1.24474573,0.583144],"name":"ramp (1)"},{"mesh":13,"translation":[92.235405,-5.026289,-99.2545],"rotation":[0.0,8.742278E-08,0.0,1.0],"name":"ramp (2)"},{"mesh":14,"translation":[-88.04192,-5.026289,81.2659],"rotation":[0.0,8.742278E-08,0.0,1.0],"name":"ramp (3)"}],"meshes":[{"primitives":[{"attributes":{"POSITION":1,"NORMAL":2,"TEXCOORD_0":3},"indices":0,"material":0}],"name":"side"},{"primitives":[{"attributes":{"POSITION":5,"NORMAL":6,"TEXCOORD_0":7},"indices":4,"material":1}],"name":"ground"},{"primitives":[{"attributes":{"POSITION":9,"NORMAL":10,"TEXCOORD_0":11},"indices":8,"material":1}],"name":"pipe"},{"primitives":[{"attributes":{"POSITION":13,"NORMAL":14,"TEXCOORD_0":15},"indices":12,"material":1}],"name":"pipe"},{"primitives":[{"attributes":{"POSITION":17,"NORMAL":18,"TEXCOORD_0":19},"indices":16,"material":1}],"name":"platform"},{"primitives":[{"attributes":{"POSITION":21,"NORMAL":22,"TEXCOORD_0":23},"indices":20,"material":1}],"name":"rail"},{"primitives":[{"attributes":{"POSITION":25,"NORMAL":26,"TEXCOORD_0":27},"indices":24,"material":1}],"name":"rail"},{"primitives":[{"attributes":{"POSITION":29,"NORMAL":30,"TEXCOORD_0":31},"indices":28,"material":1}],"name":"rail"},{"primitives":[{"attributes":{"POSITION":33,"NORMAL":34,"TEXCOORD_0":35},"indices":32,"material":1}],"name":"rail"},{"primitives":[{"attributes":{"POSITION":37,"NORMAL":38,"TEXCOORD_0":39},"indices":36,"material":1}],"name":"ramp"},{"primitives":[{"attributes":{"POSITION":41,"NORMAL":42,"TEXCOORD_0":43},"indices":40,"material":1}],"name":"rail"},{"primitives":[{"attributes":{"POSITION":45,"NORMAL":46,"TEXCOORD_0":47},"indices":44,"material":1}],"name":"rail"},{"primitives":[{"attributes":{"POSITION":49,"NORMAL":50,"TEXCOORD_0":51},"indices":48,"material":1}],"name":"ramp"},{"primitives":[{"attributes":{"POSITION":53,"NORMAL":54,"TEXCOORD_0":55},"indices":52,"material":1}],"name":"ramp"},{"primitives":[{"attributes":{"POSITION":57,"NORMAL":58,"TEXCOORD_0":59},"indices":56,"material":1}],"name":"ramp"}],"accessors":[{"bufferView":0,"componentType":5123,"count":9648,"type":"SCALAR","name":"accessorIndices"},{"bufferView":1,"componentType":5126,"count":1833,"max":[262.143677,29.540844,412.7014],"min":[-260.821838,-24.256,-412.256775],"type":"VEC3","name":"accessorPositions"},{"bufferView":1,"byteOffset":21996,"componentType":5126,"count":1833,"type":"VEC3","name":"accessorNormals"},{"bufferView":2,"componentType":5126,"count":1833,"type":"VEC2","name":"accessorUVs"},{"bufferView":0,"byteOffset":19296,"componentType":5123,"count":9216,"type":"SCALAR","name":"accessorIndices"},{"bufferView":1,"byteOffset":43992,"componentType":5126,"count":1617,"max":[250.0,11.6034861,400.0],"min":[-250.0,-11.6034861,-400.0],"type":"VEC3","name":"accessorPositions"},{"bufferView":1,"byteOffset":63396,"componentType":5126,"count":1617,"type":"VEC3","name":"accessorNormals"},{"bufferView":2,"byteOffset":14664,"componentType":5126,"count":1617,"type":"VEC2","name":"accessorUVs"},{"bufferView":0,"byteOffset":37728,"componentType":5123,"count":1344,"type":"SCALAR","name":"accessorIndices"},{"bufferView":1,"byteOffset":82800,"componentType":5126,"count":255,"max":[51.6147728,27.3409,49.3233376],"min":[-51.6147728,-27.3408985,-49.3233376],"type":"VEC3","name":"accessorPositions"},{"bufferView":1,"byteOffset":85860,"componentType":5126,"count":255,"type":"VEC3","name":"accessorNormals"},{"bufferView":2,"byteOffset":27600,"componentType":5126,"count":255,"type":"VEC2","name":"accessorUVs"},{"bufferView":0,"byteOffset":40416,"componentType":5123,"count":1344,"type":"SCALAR","name":"accessorIndices"},{"bufferView":1,"byteOffset":88920,"componentType":5126,"count":255,"max":[51.6147728,27.3409,49.3233],"min":[-51.6147728,-27.3408985,-49.32338],"type":"VEC3","name":"accessorPositions"},{"bufferView":1,"byteOffset":91980,"componentType":5126,"count":255,"type":"VEC3","name":"accessorNormals"},{"bufferView":2,"byteOffset":29640,"componentType":5126,"count":255,"type":"VEC2","name":"accessorUVs"},{"bufferView":0,"byteOffset":43104,"componentType":5123,"count":60,"type":"SCALAR","name":"accessorIndices"},{"bufferView":1,"byteOffset":95040,"componentType":5126,"count":32,"max":[101.818657,8.766318,67.73793],"min":[-101.818634,-8.766318,-67.73793],"type":"VEC3","name":"accessorPositions"},{"bufferView":1,"byteOffset":95424,"componentType":5126,"count":32,"type":"VEC3","name":"accessorNormals"},{"bufferView":2,"byteOffset":31680,"componentType":5126,"count":32,"type":"VEC2","name":"accessorUVs"},{"bufferView":0,"byteOffset":43224,"componentType":5123,"count":228,"type":"SCALAR","name":"accessorIndices"},{"bufferView":1,"byteOffset":95808,"componentType":5126,"count":152,"max":[18.90879,4.708446,28.5398655],"min":[-12.762187,-4.70844555,-33.175354],"type":"VEC3","name":"accessorPositions"},{"bufferView":1,"byteOffset":97632,"componentType":5126,"count":152,"type":"VEC3","name":"accessorNormals"},{"bufferView":2,"byteOffset":31936,"componentType":5126,"count":152,"type":"VEC2","name":"accessorUVs"},{"bufferView":0,"byteOffset":43680,"componentType":5123,"count":228,"type":"SCALAR","name":"accessorIndices"},{"bufferView":1,"byteOffset":99456,"componentType":5126,"count":152,"max":[21.25333,7.350589,26.6681786],"min":[-21.2533226,-7.35059166,-26.6681976],"type":"VEC3","name":"accessorPositions"},{"bufferView":1,"byteOffset":101280,"componentType":5126,"count":152,"type":"VEC3","name":"accessorNormals"},{"bufferView":2,"byteOffset":33152,"componentType":5126,"count":152,"type":"VEC2","name":"accessorUVs"},{"bufferView":0,"byteOffset":44136,"componentType":5123,"count":228,"type":"SCALAR","name":"accessorIndices"},{"bufferView":1,"byteOffset":103104,"componentType":5126,"count":152,"max":[28.8739376,7.350589,6.60382938],"min":[-28.87394,-7.35059166,-6.60381126],"type":"VEC3","name":"accessorPositions"},{"bufferView":1,"byteOffset":104928,"componentType":5126,"count":152,"type":"VEC3","name":"accessorNormals"},{"bufferView":2,"byteOffset":34368,"componentType":5126,"count":152,"type":"VEC2","name":"accessorUVs"},{"bufferView":0,"byteOffset":44592,"componentType":5123,"count":228,"type":"SCALAR","name":"accessorIndices"},{"bufferView":1,"byteOffset":106752,"componentType":5126,"count":152,"max":[19.38945,4.708446,33.0503349],"min":[-12.9753437,-4.70844555,-28.1132946],"type":"VEC3","name":"accessorPositions"},{"bufferView":1,"byteOffset":108576,"componentType":5126,"count":152,"type":"VEC3","name":"accessorNormals"},{"bufferView":2,"byteOffset":35584,"componentType":5126,"count":152,"type":"VEC2","name":"accessorUVs"},{"bufferView":0,"byteOffset":45048,"componentType":5123,"count":228,"type":"SCALAR","name":"accessorIndices"},{"bufferView":1,"byteOffset":110400,"componentType":5126,"count":152,"max":[9.351336,13.3242035,36.9941978],"min":[-9.351335,-11.1511192,-38.1918564],"type":"VEC3","name":"accessorPositions"},{"bufferView":1,"byteOffset":112224,"componentType":5126,"count":152,"type":"VEC3","name":"accessorNormals"},{"bufferView":2,"byteOffset":36800,"componentType":5126,"count":152,"type":"VEC2","name":"accessorUVs"},{"bufferView":0,"byteOffset":45504,"componentType":5123,"count":228,"type":"SCALAR","name":"accessorIndices"},{"bufferView":1,"byteOffset":114048,"componentType":5126,"count":152,"max":[10.38869,4.70844555,38.3023],"min":[-8.14444,-4.708445,-38.3953247],"type":"VEC3","name":"accessorPositions"},{"bufferView":1,"byteOffset":115872,"componentType":5126,"count":152,"type":"VEC3","name":"accessorNormals"},{"bufferView":2,"byteOffset":38016,"componentType":5126,"count":152,"type":"VEC2","name":"accessorUVs"},{"bufferView":0,"byteOffset":45960,"componentType":5123,"count":228,"type":"SCALAR","name":"accessorIndices"},{"bufferView":1,"byteOffset":117696,"componentType":5126,"count":152,"max":[23.3301525,4.70844555,22.8205357],"min":[-28.4592285,-4.708446,-28.0429726],"type":"VEC3","name":"accessorPositions"},{"bufferView":1,"byteOffset":119520,"componentType":5126,"count":152,"type":"VEC3","name":"accessorNormals"},{"bufferView":2,"byteOffset":39232,"componentType":5126,"count":152,"type":"VEC2","name":"accessorUVs"},{"bufferView":0,"byteOffset":46416,"componentType":5123,"count":228,"type":"SCALAR","name":"accessorIndices"},{"bufferView":1,"byteOffset":121344,"componentType":5126,"count":152,"max":[8.097173,7.512643,66.09491],"min":[-13.45518,-7.51264334,-66.09492],"type":"VEC3","name":"accessorPositions"},{"bufferView":1,"byteOffset":123168,"componentType":5126,"count":152,"type":"VEC3","name":"accessorNormals"},{"bufferView":2,"byteOffset":40448,"componentType":5126,"count":152,"type":"VEC2","name":"accessorUVs"},{"bufferView":0,"byteOffset":46872,"componentType":5123,"count":228,"type":"SCALAR","name":"accessorIndices"},{"bufferView":1,"byteOffset":124992,"componentType":5126,"count":152,"max":[21.8497581,13.32422,37.9615135],"min":[-21.4401379,-11.1511354,-39.086937],"type":"VEC3","name":"accessorPositions"},{"bufferView":1,"byteOffset":126816,"componentType":5126,"count":152,"type":"VEC3","name":"accessorNormals"},{"bufferView":2,"byteOffset":41664,"componentType":5126,"count":152,"type":"VEC2","name":"accessorUVs"},{"bufferView":0,"byteOffset":47328,"componentType":5123,"count":228,"type":"SCALAR","name":"accessorIndices"},{"bufferView":1,"byteOffset":128640,"componentType":5126,"count":152,"max":[9.351338,13.3242054,38.19185],"min":[-9.351337,-11.15112,-36.9942055],"type":"VEC3","name":"accessorPositions"},{"bufferView":1,"byteOffset":130464,"componentType":5126,"count":152,"type":"VEC3","name":"accessorNormals"},{"bufferView":2,"byteOffset":42880,"componentType":5126,"count":152,"type":"VEC2","name":"accessorUVs"}],"bufferViews":[{"buffer":0,"byteLength":47784,"name":"bufferViewScalar"},{"buffer":0,"byteOffset":47784,"byteLength":132288,"byteStride":12,"name":"bufferViewFloatVec3"},{"buffer":0,"byteOffset":180072,"byteLength":44096,"byteStride":8,"name":"bufferViewFloatVec2"}],"buffers":[{"uri":"ds01.bin","byteLength":224168}],"materials":[{"pbrMetallicRoughness":{"baseColorTexture":{"index":0},"metallicFactor":0.0,"roughnessFactor":0.450053632},"name":"Material #195"},{"pbrMetallicRoughness":{"baseColorTexture":{"index":1},"metallicFactor":0.0,"roughnessFactor":0.450053632},"name":"Material #196"}],"textures":[{"sampler":0,"source":0,"name":"4kground.jpg"},{"sampler":0,"source":1,"name":"4kground2.jpg"}],"images":[{"uri":"4kground.jpg"},{"uri":"4kground2.jpg"}],"samplers":[{"magFilter":9729,"minFilter":9987}]}