{"asset":{"version":"2.0","generator":"babylon.js glTF exporter for 3dsmax 2018 v20211102.1"},"scene":0,"scenes":[{"nodes":[0,1]}],"nodes":[{"mesh":0,"name":"Car"},{"mesh":1,"name":"Wheel"}],"meshes":[{"primitives":[{"attributes":{"POSITION":1,"NORMAL":2,"TEXCOORD_0":3},"indices":0,"material":0}],"name":"Car"},{"primitives":[{"attributes":{"POSITION":5,"NORMAL":6,"TEXCOORD_0":7},"indices":4,"material":0}],"name":"Wheel"}],"accessors":[{"bufferView":0,"componentType":5123,"count":3792,"type":"SCALAR","name":"accessorIndices"},{"bufferView":1,"componentType":5126,"count":2938,"max":[0.563923955,0.317774,1.06531763],"min":[-0.563923955,-0.317774,-1.06531763],"type":"VEC3","name":"accessorPositions"},{"bufferView":1,"byteOffset":35256,"componentType":5126,"count":2938,"type":"VEC3","name":"accessorNormals"},{"bufferView":2,"componentType":5126,"count":2938,"type":"VEC2","name":"accessorUVs"},{"bufferView":0,"byteOffset":7584,"componentType":5123,"count":756,"type":"SCALAR","name":"accessorIndices"},{"bufferView":1,"byteOffset":70512,"componentType":5126,"count":420,"max":[0.0545512363,0.162659809,0.166842952],"min":[-0.05455116,-0.162659809,-0.166842952],"type":"VEC3","name":"accessorPositions"},{"bufferView":1,"byteOffset":75552,"componentType":5126,"count":420,"type":"VEC3","name":"accessorNormals"},{"bufferView":2,"byteOffset":23504,"componentType":5126,"count":420,"type":"VEC2","name":"accessorUVs"}],"bufferViews":[{"buffer":0,"byteLength":9096,"name":"bufferViewScalar"},{"buffer":0,"byteOffset":9096,"byteLength":80592,"byteStride":12,"name":"bufferViewFloatVec3"},{"buffer":0,"byteOffset":89688,"byteLength":26864,"byteStride":8,"name":"bufferViewFloatVec2"}],"buffers":[{"uri":"vehicleNS.bin","byteLength":116552}],"materials":[{"pbrMetallicRoughness":{"baseColorTexture":{"index":0},"metallicFactor":0.0,"roughnessFactor":0.450053632},"name":"08 - Default"}],"textures":[{"sampler":0,"source":0,"name":"vehicleTexture.jpg"}],"images":[{"uri":"vehicleTexture.jpg"}],"samplers":[{"magFilter":9729,"minFilter":9987}]}